
      <svg data-logo="logo" xmlns="http://www.w3.org/2000/svg" viewBox="0 0 241 42">
        <g id="logogram" transform="translate(0, 1) rotate(0) "><path fill-rule="evenodd" clip-rule="evenodd" d="M23.3333 0C23.7194 0 24.1033 0.00932962 24.4847 0.0280265C24.4924 0.0284028 24.4989 0.0222809 24.4989 0.0145938V0.0145938C24.4989 0.00716838 24.5049 0.0011489 24.5123 0.0011489H45.8418C46.2974 0.00137965 46.6667 0.373466 46.6667 0.83295C46.6666 1.05356 46.5798 1.26515 46.4251 1.42119L40.8322 7.05882H52.7444C53.5415 7.05882 54.27 7.52957 54.5456 8.27757C55.4857 10.829 56 13.5892 56 16.4706C56 29.4655 45.5533 40 32.6667 40C32.2808 40 31.8971 39.9896 31.5158 39.9709C31.5078 39.9705 31.5011 39.9768 31.5011 39.9848V39.9848C31.5011 39.9926 31.4949 39.9989 31.4871 39.9989H10.1582C9.7026 39.9986 9.33333 39.6265 9.33333 39.1671C9.33336 38.9464 9.42022 38.7348 9.57487 38.5788L15.1655 32.9412H3.25562C2.45846 32.9412 1.73002 32.4704 1.4544 31.7224C0.514256 29.171 0 26.4109 0 23.5294C0 10.5345 10.4467 0 23.3333 0ZM31.3177 16.6556C29.3919 14.383 26.5301 12.9412 23.3333 12.9412C17.5343 12.9412 12.8333 17.6817 12.8333 23.5294C12.8333 24.7672 13.0456 25.9547 13.4326 27.0588H20.9989L24.6823 23.3444C26.6081 25.617 29.4699 27.0588 32.6667 27.0588C38.4657 27.0588 43.1667 22.3183 43.1667 16.4706C43.1667 15.2328 42.9544 14.0453 42.5674 12.9412H35.0011L31.3177 16.6556Z" fill="#3754FA"/></g>
        <g id="logotype" transform="translate(62, 7.5)"><path fill="#041020" d="M19.48 27.34L19.48 27.34Q16.12 27.34 13.43 25.80Q10.73 24.27 9.17 21.34Q7.61 18.42 7.61 14.29L7.61 14.29Q7.61 10.13 9.17 7.20Q10.73 4.27 13.43 2.73Q16.12 1.19 19.48 1.19L19.48 1.19Q22.87 1.19 25.55 2.73Q28.23 4.27 29.80 7.20Q31.36 10.13 31.36 14.29L31.36 14.29Q31.36 18.42 29.80 21.34Q28.23 24.27 25.55 25.80Q22.87 27.34 19.48 27.34ZM19.48 22.71L19.48 22.71Q21.47 22.71 22.94 21.74Q24.42 20.78 25.24 18.89Q26.06 17.00 26.06 14.29L26.06 14.29Q26.06 11.53 25.24 9.65Q24.42 7.76 22.94 6.79Q21.47 5.83 19.48 5.83L19.48 5.83Q17.52 5.83 16.03 6.80Q14.54 7.77 13.72 9.66Q12.90 11.55 12.90 14.29L12.90 14.29Q12.90 17.00 13.72 18.88Q14.54 20.76 16.03 21.74Q17.52 22.71 19.48 22.71ZM38.01 15.94L38.01 15.94L38.01 27L32.88 27L32.88 7.89L37.72 7.89L37.80 12.66L37.49 12.66Q38.25 10.27 39.78 8.96Q41.31 7.65 43.73 7.65L43.73 7.65Q45.71 7.65 47.18 8.52Q48.65 9.38 49.47 11.00Q50.29 12.61 50.29 14.85L50.29 14.85L50.29 27L45.17 27L45.17 15.74Q45.17 13.96 44.25 12.95Q43.34 11.94 41.72 11.94L41.72 11.94Q40.64 11.94 39.79 12.41Q38.95 12.88 38.48 13.77Q38.01 14.66 38.01 15.94ZM61.03 27.38L61.03 27.38Q58.10 27.38 55.98 26.18Q53.86 24.98 52.73 22.78Q51.59 20.57 51.59 17.55L51.59 17.55Q51.59 14.59 52.72 12.37Q53.85 10.15 55.92 8.90Q57.98 7.65 60.77 7.65L60.77 7.65Q62.65 7.65 64.27 8.25Q65.90 8.85 67.13 10.06Q68.36 11.26 69.05 13.07Q69.74 14.88 69.74 17.34L69.74 17.34L69.74 18.78L53.69 18.78L53.69 15.57L67.23 15.57L64.84 16.42Q64.84 14.93 64.38 13.83Q63.93 12.73 63.03 12.12Q62.14 11.52 60.80 11.52L60.80 11.52Q59.49 11.52 58.56 12.13Q57.62 12.75 57.15 13.80Q56.67 14.85 56.67 16.20L56.67 16.20L56.67 18.47Q56.67 20.13 57.22 21.26Q57.78 22.39 58.78 22.95Q59.78 23.51 61.11 23.51L61.11 23.51Q62.02 23.51 62.75 23.26Q63.49 23.00 64.01 22.50Q64.53 21.99 64.80 21.26L64.80 21.26L69.45 22.13Q68.99 23.70 67.84 24.89Q66.70 26.08 64.98 26.73Q63.26 27.38 61.03 27.38ZM82.21 27.34L82.21 27.34Q78.83 27.34 76.16 25.80Q73.48 24.27 71.94 21.34Q70.39 18.42 70.39 14.29L70.39 14.29Q70.39 10.13 71.94 7.20Q73.50 4.27 76.18 2.73Q78.86 1.19 82.21 1.19L82.21 1.19Q84.38 1.19 86.26 1.80Q88.13 2.41 89.58 3.57Q91.03 4.73 91.96 6.42Q92.88 8.10 93.17 10.23L93.17 10.23L87.89 10.23Q87.72 9.19 87.23 8.38Q86.74 7.57 86.02 7.00Q85.29 6.42 84.35 6.12Q83.41 5.83 82.32 5.83L82.32 5.83Q80.33 5.83 78.83 6.82Q77.33 7.81 76.51 9.70Q75.69 11.58 75.69 14.29L75.69 14.29Q75.69 17.04 76.52 18.92Q77.36 20.80 78.85 21.75Q80.33 22.71 82.30 22.71L82.30 22.71Q83.39 22.71 84.33 22.41Q85.26 22.11 86.00 21.54Q86.74 20.97 87.23 20.15Q87.72 19.33 87.91 18.30L87.91 18.30L93.19 18.30Q92.98 20.06 92.14 21.69Q91.29 23.31 89.89 24.59Q88.49 25.87 86.56 26.61Q84.62 27.34 82.21 27.34ZM94.59 1.54L99.71 1.54L99.71 27L94.59 27L94.59 1.54ZM106.92 27L101.80 27L101.80 7.89L106.92 7.89L106.92 27ZM104.36 5.40L104.36 5.40Q103.20 5.40 102.38 4.63Q101.56 3.86 101.56 2.77L101.56 2.77Q101.56 1.67 102.38 0.90Q103.20 0.13 104.36 0.13L104.36 0.13Q105.52 0.13 106.35 0.90Q107.18 1.66 107.18 2.77L107.18 2.77Q107.18 3.86 106.35 4.63Q105.52 5.40 104.36 5.40ZM117.55 27.38L117.55 27.38Q114.66 27.38 112.57 26.14Q110.47 24.90 109.34 22.68Q108.20 20.47 108.20 17.53L108.20 17.53Q108.20 14.56 109.34 12.35Q110.47 10.13 112.57 8.89Q114.66 7.65 117.55 7.65L117.55 7.65Q119.24 7.65 120.68 8.10Q122.11 8.54 123.22 9.36Q124.33 10.18 125.05 11.36Q125.77 12.54 126.04 14.01L126.04 14.01L121.28 14.90Q121.12 14.15 120.80 13.56Q120.47 12.97 120.01 12.55Q119.55 12.13 118.94 11.91Q118.34 11.69 117.60 11.69L117.60 11.69Q116.23 11.69 115.30 12.42Q114.37 13.16 113.90 14.47Q113.43 15.79 113.43 17.52L113.43 17.52Q113.43 19.22 113.90 20.53Q114.37 21.84 115.30 22.59Q116.23 23.34 117.60 23.34L117.60 23.34Q118.34 23.34 118.95 23.11Q119.57 22.88 120.05 22.45Q120.52 22.01 120.85 21.39Q121.17 20.78 121.31 20.01L121.31 20.01L126.08 20.88Q125.80 22.40 125.09 23.59Q124.37 24.78 123.26 25.63Q122.15 26.49 120.70 26.93Q119.26 27.38 117.55 27.38ZM135.46 17.48L131.97 21.41L131.97 15.24L132.74 15.24L139.00 7.89L144.93 7.89L136.67 17.48L135.46 17.48ZM132.45 27L127.32 27L127.32 1.54L132.45 1.54L132.45 27ZM145.28 27L139.25 27L133.51 18.63L136.95 14.99L145.28 27ZM149.01 27.32L149.01 27.32Q147.76 27.32 146.91 26.48Q146.05 25.63 146.05 24.39L146.05 24.39Q146.05 23.14 146.91 22.30Q147.76 21.46 149.01 21.46L149.01 21.46Q150.26 21.46 151.11 22.30Q151.97 23.14 151.97 24.39L151.97 24.39Q151.97 25.63 151.11 26.48Q150.26 27.32 149.01 27.32ZM160.10 27.38L160.10 27.38Q158.29 27.38 156.84 26.74Q155.40 26.09 154.57 24.82Q153.74 23.55 153.74 21.65L153.74 21.65Q153.74 20.06 154.33 18.98Q154.92 17.91 155.94 17.26Q156.95 16.61 158.24 16.27Q159.53 15.93 160.95 15.79L160.95 15.79Q162.61 15.62 163.63 15.47Q164.64 15.33 165.11 15.01Q165.58 14.70 165.58 14.08L165.58 14.08L165.58 13.99Q165.58 13.17 165.24 12.61Q164.90 12.05 164.23 11.75Q163.57 11.45 162.59 11.45L162.59 11.45Q161.60 11.45 160.87 11.75Q160.13 12.05 159.67 12.54Q159.21 13.04 158.99 13.65L158.99 13.65L154.29 12.87Q154.78 11.21 155.93 10.05Q157.07 8.88 158.77 8.27Q160.47 7.65 162.59 7.65L162.59 7.65Q164.15 7.65 165.60 8.02Q167.05 8.39 168.21 9.16Q169.36 9.93 170.04 11.16Q170.71 12.39 170.71 14.13L170.71 14.13L170.71 27L165.86 27L165.86 24.35L165.69 24.35Q165.22 25.24 164.46 25.91Q163.69 26.59 162.60 26.98Q161.52 27.38 160.10 27.38ZM161.55 23.77L161.55 23.77Q162.76 23.77 163.68 23.29Q164.59 22.81 165.11 21.99Q165.62 21.17 165.62 20.16L165.62 20.16L165.62 18.10Q165.40 18.27 164.93 18.40Q164.47 18.54 163.91 18.64Q163.34 18.75 162.80 18.83Q162.25 18.92 161.82 18.97L161.82 18.97Q160.88 19.10 160.17 19.41Q159.45 19.72 159.06 20.22Q158.66 20.73 158.66 21.51L158.66 21.51Q158.66 22.25 159.04 22.75Q159.41 23.26 160.06 23.51Q160.70 23.77 161.55 23.77ZM177.94 27L172.81 27L172.81 7.89L177.94 7.89L177.94 27ZM175.37 5.40L175.37 5.40Q174.21 5.40 173.39 4.63Q172.57 3.86 172.57 2.77L172.57 2.77Q172.57 1.67 173.39 0.90Q174.21 0.13 175.37 0.13L175.37 0.13Q176.54 0.13 177.36 0.90Q178.19 1.66 178.19 2.77L178.19 2.77Q178.19 3.86 177.36 4.63Q176.54 5.40 175.37 5.40Z"/></g>
        
      </svg>
    